<svg width="227" height="524" viewBox="0 0 227 524" fill="none" xmlns="http://www.w3.org/2000/svg">
<g filter="url(#filter0_i)">
<path d="M215.731 414.193L208 417.186L208 424.025H216.231L224.639 418.388L215.731 414.193Z" fill="url(#paint0_linear)"/>
<path fill-rule="evenodd" clip-rule="evenodd" d="M33.8617 433.429L29.3446 434.346L29.3446 430.905L33.8617 433.429Z" fill="url(#paint1_linear)"/>
<path d="M7.03512 429.42L11.1548 428.937L11.1548 432.107L7.03512 429.42Z" fill="url(#paint2_linear)"/>
<path d="M215.731 313.388L208 316.381L208 323.221H216.231L224.639 317.584L215.731 313.388Z" fill="url(#paint3_linear)"/>
<path fill-rule="evenodd" clip-rule="evenodd" d="M33.8617 332.624L29.3446 333.542L29.3446 330.101L33.8617 332.624Z" fill="url(#paint4_linear)"/>
<path d="M7.03512 328.615L11.1548 328.133L11.1548 331.302L7.03512 328.615Z" fill="url(#paint5_linear)"/>
<path d="M215.731 414.193L208 417.186L208 424.025H216.231L224.639 418.388L215.731 414.193Z" fill="url(#paint6_linear)"/>
<path fill-rule="evenodd" clip-rule="evenodd" d="M33.8617 433.429L29.3446 434.346L29.3446 430.905L33.8617 433.429Z" fill="url(#paint7_linear)"/>
<path d="M7.03512 429.42L11.1548 428.937L11.1548 432.107L7.03512 429.42Z" fill="url(#paint8_linear)"/>
<path d="M215.731 313.388L208 316.381L208 323.221H216.231L224.639 317.584L215.731 313.388Z" fill="url(#paint9_linear)"/>
<path fill-rule="evenodd" clip-rule="evenodd" d="M33.8617 332.624L29.3446 333.542L29.3446 330.101L33.8617 332.624Z" fill="url(#paint10_linear)"/>
<path d="M7.03512 328.615L11.1548 328.133L11.1548 331.302L7.03512 328.615Z" fill="url(#paint11_linear)"/>
<path d="M215.731 211.193L208 214.186L208 221.025H216.231L224.639 215.388L215.731 211.193Z" fill="url(#paint12_linear)"/>
<path fill-rule="evenodd" clip-rule="evenodd" d="M33.8617 230.429L29.3446 231.346L29.3446 227.905L33.8617 230.429Z" fill="url(#paint13_linear)"/>
<path d="M7.03512 226.42L11.1548 225.937L11.1548 229.107L7.03512 226.42Z" fill="url(#paint14_linear)"/>
<path d="M215.731 110.388L208 113.381L208 120.221H216.231L224.639 114.584L215.731 110.388Z" fill="url(#paint15_linear)"/>
<path fill-rule="evenodd" clip-rule="evenodd" d="M33.8617 129.624L29.3446 130.542L29.3446 127.101L33.8617 129.624Z" fill="url(#paint16_linear)"/>
<path d="M7.03512 125.615L11.1548 125.133L11.1548 128.302L7.03512 125.615Z" fill="url(#paint17_linear)"/>
<path d="M215.731 211.193L208 214.186L208 221.025H216.231L224.639 215.388L215.731 211.193Z" fill="url(#paint18_linear)"/>
<path fill-rule="evenodd" clip-rule="evenodd" d="M33.8617 230.429L29.3446 231.346L29.3446 227.905L33.8617 230.429Z" fill="url(#paint19_linear)"/>
<path d="M7.03512 226.42L11.1548 225.937L11.1548 229.107L7.03512 226.42Z" fill="url(#paint20_linear)"/>
<path d="M215.731 110.388L208 113.381L208 120.221H216.231L224.639 114.584L215.731 110.388Z" fill="url(#paint21_linear)"/>
<path fill-rule="evenodd" clip-rule="evenodd" d="M33.8617 129.624L29.3446 130.542L29.3446 127.101L33.8617 129.624Z" fill="url(#paint22_linear)"/>
<path d="M7.03512 125.615L11.1548 125.133L11.1548 128.302L7.03512 125.615Z" fill="url(#paint23_linear)"/>
<path d="M215.731 9.59473L208 12.5877L208 19.427H216.231L224.639 13.7903L215.731 9.59473Z" fill="url(#paint24_linear)"/>
<path fill-rule="evenodd" clip-rule="evenodd" d="M33.8617 28.8305L29.3446 29.7479L29.3446 26.3071L33.8617 28.8305Z" fill="url(#paint25_linear)"/>
<path d="M215.731 9.59473L208 12.5877L208 19.427H216.231L224.639 13.7903L215.731 9.59473Z" fill="url(#paint26_linear)"/>
<path fill-rule="evenodd" clip-rule="evenodd" d="M33.8617 28.8305L29.3446 29.7479L29.3446 26.3071L33.8617 28.8305Z" fill="url(#paint27_linear)"/>
<path d="M11.1548 24.3389L11.1548 27.5087L7.03512 24.8216L11.1548 24.3389Z" fill="url(#paint28_linear)"/>
<path d="M11.1547 5.49988L21 2L29.3446 5.49988L18 9L11.1547 5.49988Z" fill="url(#paint29_linear)"/>
</g>
<path d="M2 426.442L4.95968 463.397L5.76057 478.757L2.47972 507.144L11.1547 510.903M2 426.442L7.03512 429.42M2 426.442L6.69798 424.083L11.1548 424.046M33.2026 500.165L216.231 500.165M216.231 500.165L216.231 424.025M216.231 500.165L224.639 494.528L224.639 418.388M33.8617 433.429L30.5546 467.198L31.9188 483.554L33.5188 508.935L29.3446 510.903M33.8617 433.429L29.3446 434.346M33.8617 433.429L29.3446 430.905M216.231 424.025H208M216.231 424.025L224.639 418.388M208 424.025L208 417.186L215.731 414.193L224.639 418.388M208 424.025L29.3446 424.025M11.1547 510.903L19.9466 513.862L29.3446 510.903M11.1547 510.903L11.1547 517.401L19.9466 522L29.3446 519.193M29.3446 519.193C29.3446 519.193 29.3446 518.28 29.3446 510.903M29.3446 519.193L29.3446 510.903M11.1547 416.597L11.1548 428.937M11.1547 416.597L11.1547 410.098M11.1547 416.597L11.1548 424.046M29.3446 430.905L29.3446 434.346M29.3446 430.905C29.3446 427.042 29.3446 418.399 29.3446 418.399M29.3446 430.905L29.3446 424.025M29.3446 418.399C29.3446 418.399 29.3446 417.475 29.3446 410.098M29.3446 418.399L29.3446 410.098M29.3446 418.399L29.3446 424.025M11.1548 428.937L11.1548 432.107M11.1548 428.937L7.03512 429.42M11.1548 428.937L11.1548 424.046M11.1548 432.107L18.8602 436.234L29.3446 434.346M11.1548 432.107L7.03512 429.42M2 325.637L4.95968 362.593L5.76057 377.953L2.47972 406.34L11.1547 410.098M2 325.637L7.03512 328.615M2 325.637L6.69798 323.278L11.1548 323.241M33.2026 399.36L216.231 399.36M216.231 399.36L216.231 323.221M216.231 399.36L224.639 393.724L224.639 317.584M33.8617 332.624L30.5545 366.393L31.9188 382.75L33.5188 408.131L29.3446 410.098M33.8617 332.624L29.3446 333.542M33.8617 332.624L29.3446 330.101M216.231 323.221H208M216.231 323.221L224.639 317.584M208 323.221L208 316.381L215.731 313.388L224.639 317.584M208 323.221L29.3446 323.221M11.1547 410.098L19.9466 413.057L29.3446 410.098M11.1548 323.241L11.1548 328.133M11.1548 323.241L11.1547 307.903M29.3446 330.101L29.3446 333.542M29.3446 330.101C29.3446 326.238 29.3446 307.903 29.3446 307.903M29.3446 330.101L29.3446 323.221M29.3446 307.903L33.5188 305.935L31.9188 280.554L30.5545 264.198L33.8617 230.429M29.3446 307.903L19.9466 310.862L11.1547 307.903M29.3446 307.903L29.3446 323.221M11.1548 328.133L11.1548 331.302M11.1548 328.133L7.03512 328.615M11.1548 331.302L18.8602 335.429L29.3446 333.542M11.1548 331.302L7.03512 328.615M2 223.442L4.95969 260.397L5.76057 275.757L2.47972 304.144L11.1547 307.903M2 223.442L7.03512 226.42M2 223.442L6.69798 221.083L11.1548 221.046M33.2026 297.165L216.231 297.165M216.231 297.165L216.231 221.025M216.231 297.165L224.639 291.528L224.639 215.388M33.8617 230.429L29.3446 231.346M33.8617 230.429L29.3446 227.905M216.231 221.025H208M216.231 221.025L224.639 215.388M208 221.025L208 214.186L215.731 211.193L224.639 215.388M208 221.025L29.3446 221.025M11.1547 212.248L11.1548 225.937M11.1547 212.248L11.1547 207.098M11.1547 212.248L11.1548 221.046M29.3446 227.905L29.3446 231.346M29.3446 227.905C29.3446 224.042 29.3446 215.399 29.3446 215.399M29.3446 227.905L29.3446 221.025M29.3446 215.399C29.3446 215.399 29.3446 214.475 29.3446 207.098M29.3446 215.399L29.3446 207.098M29.3446 215.399L29.3446 221.025M11.1548 225.937L11.1548 229.107M11.1548 225.937L7.03512 226.42M11.1548 225.937L11.1548 221.046M11.1548 229.107L18.8602 233.234L29.3446 231.346M11.1548 229.107L7.03512 226.42M2 122.637L4.95968 157.593L5.76057 174.953L2.47972 203.34L11.1547 207.098M2 122.637L7.03512 125.615M2 122.637L6.69798 120.278L11.1548 120.241M33.2026 196.36L216.231 196.36M216.231 196.36L216.231 120.221M216.231 196.36L224.639 190.724L224.639 114.584M33.8617 129.624L30.5545 161.393L31.9188 179.75L33.5188 205.131L29.3446 207.098M33.8617 129.624L29.3446 130.542M33.8617 129.624L29.3446 127.101M216.231 120.221H208M216.231 120.221L224.639 114.584M208 120.221L208 113.381L215.731 110.388L224.639 114.584M208 120.221L29.3446 120.221M11.1547 207.098L19.9466 210.057L29.3446 207.098M11.1547 106.304L11.1548 125.133M11.1547 106.304L2.47972 102.546L5.76057 74.1592L4.95968 49.7992L2 21.8438M11.1547 106.304L19.9466 109.264L29.3446 106.304M11.1547 106.304L11.1548 120.241M29.3446 127.101L29.3446 130.542M29.3446 127.101C29.3446 123.238 29.3446 120.221 29.3446 120.221M29.3446 127.101L29.3446 120.221M29.3446 120.221L29.3446 106.304M11.1548 125.133L11.1548 128.302M11.1548 125.133L7.03512 125.615M11.1548 125.133L11.1548 120.241M11.1548 128.302L18.8602 132.429L29.3446 130.542M11.1548 128.302L7.03512 125.615M2 21.8438L7.03512 24.8216M2 21.8438L6.69798 19.4844L11.1548 19.4474M33.2026 95.5667L216.231 95.5667M216.231 95.5667L216.231 19.427M216.231 95.5667L224.639 89.9299L224.639 13.7903M33.8617 28.8305L30.5545 53.5997L31.9188 78.9563L33.5188 104.337L29.3446 106.304M33.8617 28.8305L29.3446 29.7479M33.8617 28.8305L29.3446 26.3071M216.231 19.427H208M216.231 19.427L224.639 13.7903M208 19.427L208 12.5877L215.731 9.59473L224.639 13.7903M208 19.427L29.3446 19.427M11.1547 10.6499L11.1548 24.3389M29.3446 26.3071L29.3446 29.7479M29.3446 26.3071C29.3446 22.4442 29.3446 13.8011 29.3446 13.8011M29.3446 26.3071L29.3446 19.427M29.3446 13.8011L29.3446 5.49988M29.3446 13.8011L29.3446 19.427M11.1548 24.3389L11.1548 27.5087M11.1548 24.3389L7.03512 24.8216M11.1548 24.3389L11.1548 19.4474M11.1548 27.5087L18.8602 31.6354L29.3446 29.7479M11.1548 27.5087L7.03512 24.8216M11.1548 19.4474L11.1547 11.9988L11.1547 5.49988M11.1547 5.49988L21 2L29.3446 5.49988M11.1547 5.49988L18 9L29.3446 5.49988" stroke="black" stroke-width="3"/>
<path d="M48.824 58.304C48.664 54.816 49.48 52.256 51.272 50.624C53.064 48.96 55.384 48.128 58.232 48.128L58.28 45.152H49.352V40.688H63.08V49.664C64.328 48.64 65.88 48.128 67.736 48.128L67.784 40.688H72.584V74H67.784V52.592C66.216 52.592 65.032 53.04 64.232 53.936C63.464 54.832 63.08 56.288 63.08 58.304V74H58.28V52.592C54.984 52.592 53.416 54.496 53.576 58.304L54.344 74H49.544L48.824 58.304ZM76.4334 58.304C76.2734 54.816 77.0894 52.256 78.8814 50.624C80.6734 48.96 82.9934 48.128 85.8414 48.128L85.8894 45.152H76.9614V40.688H90.6894V49.664C91.9374 48.64 93.4894 48.128 95.3454 48.128L95.3934 40.688H100.193V74H95.3934V52.592C93.8254 52.592 92.6414 53.04 91.8414 53.936C91.0734 54.832 90.6894 56.288 90.6894 58.304V74H85.8894V52.592C82.5934 52.592 81.0254 54.496 81.1854 58.304L81.9534 74H77.1534L76.4334 58.304Z" fill="#CF9680"/>
<path d="M48.824 150.224C48.76 147.824 49.336 145.936 50.552 144.56C51.8 143.152 53.64 142.448 56.072 142.448C58.408 142.448 60.2 143.152 61.448 144.56C62.696 145.936 63.288 147.824 63.224 150.224L63.176 152.096H58.376V150.896C58.376 149.584 58.2 148.592 57.848 147.92C57.496 147.248 56.904 146.912 56.072 146.912C55.176 146.912 54.536 147.248 54.152 147.92C53.8 148.592 53.624 149.584 53.624 150.896L54.104 168.704C54.168 169.76 54.344 170.544 54.632 171.056C54.92 171.536 55.4 171.776 56.072 171.776C56.712 171.776 57.176 171.536 57.464 171.056C57.752 170.544 57.928 169.76 57.992 168.704L58.232 161.984H63.032L62.744 169.328C62.616 171.472 62.008 173.168 60.92 174.416C59.832 175.632 58.216 176.24 56.072 176.24C53.928 176.24 52.296 175.632 51.176 174.416C50.056 173.168 49.464 171.472 49.4 169.328L48.824 150.224ZM65.7928 160.304C65.6328 156.816 66.4488 154.256 68.2408 152.624C70.0328 150.96 72.3528 150.128 75.2008 150.128L75.2488 147.152H66.3208V142.688H80.0488V151.664C81.2968 150.64 82.8488 150.128 84.7048 150.128L84.7528 142.688H89.5528V176H84.7528V154.592C83.1848 154.592 82.0008 155.04 81.2008 155.936C80.4328 156.832 80.0488 158.288 80.0488 160.304V176H75.2488V154.592C71.9528 154.592 70.3848 156.496 70.5448 160.304L71.3128 176H66.5128L65.7928 160.304Z" fill="#BCCAC9"/>
<path d="M48.872 266.056H53.672V272.536H57.944L58.424 264.184C58.488 262.904 58.392 261.928 58.136 261.256C57.88 260.584 57.416 260.136 56.744 259.912C55.848 260.2 54.824 260.344 53.672 260.344V255.88C54.984 255.88 56.104 255.272 57.032 254.056C57.96 252.808 58.424 251.08 58.424 248.872V248.152H53.672V253.096H48.872V243.688H63.224V246.952C63.224 251.784 62.296 255.304 60.44 257.512C62.296 258.536 63.224 260.44 63.224 263.224L63.176 264.184L62.456 277H48.872V266.056ZM66.6365 261.304C66.4765 257.816 67.2925 255.256 69.0845 253.624C70.8765 251.96 73.1965 251.128 76.0445 251.128L76.0925 248.152H67.1645V243.688H80.8925V252.664C82.1405 251.64 83.6925 251.128 85.5485 251.128L85.5965 243.688H90.3965V277H85.5965V255.592C84.0285 255.592 82.8445 256.04 82.0445 256.936C81.2765 257.832 80.8925 259.288 80.8925 261.304V277H76.0925V255.592C72.7965 255.592 71.2285 257.496 71.3885 261.304L72.1565 277H67.3565L66.6365 261.304Z" fill="#E0C88A"/>
<path d="M48.632 352.224C48.568 349.792 49.16 347.888 50.408 346.512C51.656 345.136 53.512 344.448 55.976 344.448C58.408 344.448 60.248 345.152 61.496 346.56C62.744 347.936 63.336 349.824 63.272 352.224L62.696 371.328C62.568 373.472 61.96 375.168 60.872 376.416C59.784 377.632 58.152 378.24 55.976 378.24C53.768 378.24 52.104 377.632 50.984 376.416C49.864 375.168 49.272 373.472 49.208 371.328L48.968 363.936L53.624 363.984L53.912 370.704C53.976 371.792 54.152 372.576 54.44 373.056C54.76 373.536 55.272 373.776 55.976 373.776C56.68 373.776 57.176 373.536 57.464 373.056C57.752 372.576 57.928 371.792 57.992 370.704L58.232 361.2H52.376V356.736H58.376L58.472 352.896C58.472 351.552 58.28 350.56 57.896 349.92C57.544 349.248 56.904 348.912 55.976 348.912C55.048 348.912 54.392 349.248 54.008 349.92C53.624 350.592 53.432 351.584 53.432 352.896L53.48 354.096H48.68L48.632 352.224ZM66.1678 362.304C66.0078 358.816 66.8238 356.256 68.6158 354.624C70.4078 352.96 72.7278 352.128 75.5758 352.128L75.6238 349.152H66.6958V344.688H80.4238V353.664C81.6718 352.64 83.2238 352.128 85.0798 352.128L85.1278 344.688H89.9278V378H85.1278V356.592C83.5598 356.592 82.3758 357.04 81.5758 357.936C80.8078 358.832 80.4238 360.288 80.4238 362.304V378H75.6238V356.592C72.3278 356.592 70.7598 358.496 70.9198 362.304L71.6878 378H66.8878L66.1678 362.304Z" fill="#96B5AA"/>
<path d="M49.256 446.688H63.56V480H58.76V451.152H54.056V480H49.256V446.688ZM67.6209 464.304C67.4609 460.816 68.2769 458.256 70.0689 456.624C71.8609 454.96 74.1809 454.128 77.0289 454.128L77.0769 451.152H68.1489V446.688H81.8769V455.664C83.1249 454.64 84.6769 454.128 86.5329 454.128L86.5809 446.688H91.3809V480H86.5809V458.592C85.0129 458.592 83.8289 459.04 83.0289 459.936C82.2609 460.832 81.8769 462.288 81.8769 464.304V480H77.0769V458.592C73.7809 458.592 72.2129 460.496 72.3729 464.304L73.1409 480H68.3409L67.6209 464.304Z" fill="#D6DBCC"/>
<defs>
<filter id="filter0_i" x="0.398926" y="-2.60779" width="225.74" height="526.22" filterUnits="userSpaceOnUse" color-interpolation-filters="sRGB">
<feFlood flood-opacity="0" result="BackgroundImageFix"/>
<feBlend mode="normal" in="SourceGraphic" in2="BackgroundImageFix" result="shape"/>
<feColorMatrix in="SourceAlpha" type="matrix" values="0 0 0 0 0 0 0 0 0 0 0 0 0 0 0 0 0 0 127 0" result="hardAlpha"/>
<feOffset dy="-3"/>
<feGaussianBlur stdDeviation="1.5"/>
<feComposite in2="hardAlpha" operator="arithmetic" k2="-1" k3="1"/>
<feColorMatrix type="matrix" values="0 0 0 0 0 0 0 0 0 0 0 0 0 0 0 0 0 0 0.25 0"/>
<feBlend mode="normal" in2="shape" result="effect1_innerShadow"/>
</filter>
<linearGradient id="paint0_linear" x1="-45" y1="-77.5" x2="-52" y2="722" gradientUnits="userSpaceOnUse">
<stop stop-color="#8B5BC9"/>
<stop offset="1" stop-color="#EE09D7"/>
</linearGradient>
<linearGradient id="paint1_linear" x1="-45" y1="-77.5" x2="-52" y2="722" gradientUnits="userSpaceOnUse">
<stop stop-color="#8B5BC9"/>
<stop offset="1" stop-color="#EE09D7"/>
</linearGradient>
<linearGradient id="paint2_linear" x1="-45" y1="-77.5" x2="-52" y2="722" gradientUnits="userSpaceOnUse">
<stop stop-color="#8B5BC9"/>
<stop offset="1" stop-color="#EE09D7"/>
</linearGradient>
<linearGradient id="paint3_linear" x1="-45" y1="-77.5" x2="-52" y2="722" gradientUnits="userSpaceOnUse">
<stop stop-color="#8B5BC9"/>
<stop offset="1" stop-color="#EE09D7"/>
</linearGradient>
<linearGradient id="paint4_linear" x1="-45" y1="-77.5" x2="-52" y2="722" gradientUnits="userSpaceOnUse">
<stop stop-color="#8B5BC9"/>
<stop offset="1" stop-color="#EE09D7"/>
</linearGradient>
<linearGradient id="paint5_linear" x1="-45" y1="-77.5" x2="-52" y2="722" gradientUnits="userSpaceOnUse">
<stop stop-color="#8B5BC9"/>
<stop offset="1" stop-color="#EE09D7"/>
</linearGradient>
<linearGradient id="paint6_linear" x1="-45" y1="-77.5" x2="-52" y2="722" gradientUnits="userSpaceOnUse">
<stop stop-color="#8B5BC9"/>
<stop offset="1" stop-color="#EE09D7"/>
</linearGradient>
<linearGradient id="paint7_linear" x1="-45" y1="-77.5" x2="-52" y2="722" gradientUnits="userSpaceOnUse">
<stop stop-color="#8B5BC9"/>
<stop offset="1" stop-color="#EE09D7"/>
</linearGradient>
<linearGradient id="paint8_linear" x1="-45" y1="-77.5" x2="-52" y2="722" gradientUnits="userSpaceOnUse">
<stop stop-color="#8B5BC9"/>
<stop offset="1" stop-color="#EE09D7"/>
</linearGradient>
<linearGradient id="paint9_linear" x1="-45" y1="-77.5" x2="-52" y2="722" gradientUnits="userSpaceOnUse">
<stop stop-color="#8B5BC9"/>
<stop offset="1" stop-color="#EE09D7"/>
</linearGradient>
<linearGradient id="paint10_linear" x1="-45" y1="-77.5" x2="-52" y2="722" gradientUnits="userSpaceOnUse">
<stop stop-color="#8B5BC9"/>
<stop offset="1" stop-color="#EE09D7"/>
</linearGradient>
<linearGradient id="paint11_linear" x1="-45" y1="-77.5" x2="-52" y2="722" gradientUnits="userSpaceOnUse">
<stop stop-color="#8B5BC9"/>
<stop offset="1" stop-color="#EE09D7"/>
</linearGradient>
<linearGradient id="paint12_linear" x1="-45" y1="-77.5" x2="-52" y2="722" gradientUnits="userSpaceOnUse">
<stop stop-color="#8B5BC9"/>
<stop offset="1" stop-color="#EE09D7"/>
</linearGradient>
<linearGradient id="paint13_linear" x1="-45" y1="-77.5" x2="-52" y2="722" gradientUnits="userSpaceOnUse">
<stop stop-color="#8B5BC9"/>
<stop offset="1" stop-color="#EE09D7"/>
</linearGradient>
<linearGradient id="paint14_linear" x1="-45" y1="-77.5" x2="-52" y2="722" gradientUnits="userSpaceOnUse">
<stop stop-color="#8B5BC9"/>
<stop offset="1" stop-color="#EE09D7"/>
</linearGradient>
<linearGradient id="paint15_linear" x1="-45" y1="-77.5" x2="-52" y2="722" gradientUnits="userSpaceOnUse">
<stop stop-color="#8B5BC9"/>
<stop offset="1" stop-color="#EE09D7"/>
</linearGradient>
<linearGradient id="paint16_linear" x1="-45" y1="-77.5" x2="-52" y2="722" gradientUnits="userSpaceOnUse">
<stop stop-color="#8B5BC9"/>
<stop offset="1" stop-color="#EE09D7"/>
</linearGradient>
<linearGradient id="paint17_linear" x1="-45" y1="-77.5" x2="-52" y2="722" gradientUnits="userSpaceOnUse">
<stop stop-color="#8B5BC9"/>
<stop offset="1" stop-color="#EE09D7"/>
</linearGradient>
<linearGradient id="paint18_linear" x1="-45" y1="-77.5" x2="-52" y2="722" gradientUnits="userSpaceOnUse">
<stop stop-color="#8B5BC9"/>
<stop offset="1" stop-color="#EE09D7"/>
</linearGradient>
<linearGradient id="paint19_linear" x1="-45" y1="-77.5" x2="-52" y2="722" gradientUnits="userSpaceOnUse">
<stop stop-color="#8B5BC9"/>
<stop offset="1" stop-color="#EE09D7"/>
</linearGradient>
<linearGradient id="paint20_linear" x1="-45" y1="-77.5" x2="-52" y2="722" gradientUnits="userSpaceOnUse">
<stop stop-color="#8B5BC9"/>
<stop offset="1" stop-color="#EE09D7"/>
</linearGradient>
<linearGradient id="paint21_linear" x1="-45" y1="-77.5" x2="-52" y2="722" gradientUnits="userSpaceOnUse">
<stop stop-color="#8B5BC9"/>
<stop offset="1" stop-color="#EE09D7"/>
</linearGradient>
<linearGradient id="paint22_linear" x1="-45" y1="-77.5" x2="-52" y2="722" gradientUnits="userSpaceOnUse">
<stop stop-color="#8B5BC9"/>
<stop offset="1" stop-color="#EE09D7"/>
</linearGradient>
<linearGradient id="paint23_linear" x1="-45" y1="-77.5" x2="-52" y2="722" gradientUnits="userSpaceOnUse">
<stop stop-color="#8B5BC9"/>
<stop offset="1" stop-color="#EE09D7"/>
</linearGradient>
<linearGradient id="paint24_linear" x1="-45" y1="-77.5" x2="-52" y2="722" gradientUnits="userSpaceOnUse">
<stop stop-color="#8B5BC9"/>
<stop offset="1" stop-color="#EE09D7"/>
</linearGradient>
<linearGradient id="paint25_linear" x1="-45" y1="-77.5" x2="-52" y2="722" gradientUnits="userSpaceOnUse">
<stop stop-color="#8B5BC9"/>
<stop offset="1" stop-color="#EE09D7"/>
</linearGradient>
<linearGradient id="paint26_linear" x1="-45" y1="-77.5" x2="-52" y2="722" gradientUnits="userSpaceOnUse">
<stop stop-color="#8B5BC9"/>
<stop offset="1" stop-color="#EE09D7"/>
</linearGradient>
<linearGradient id="paint27_linear" x1="-45" y1="-77.5" x2="-52" y2="722" gradientUnits="userSpaceOnUse">
<stop stop-color="#8B5BC9"/>
<stop offset="1" stop-color="#EE09D7"/>
</linearGradient>
<linearGradient id="paint28_linear" x1="-45" y1="-77.5" x2="-52" y2="722" gradientUnits="userSpaceOnUse">
<stop stop-color="#8B5BC9"/>
<stop offset="1" stop-color="#EE09D7"/>
</linearGradient>
<linearGradient id="paint29_linear" x1="-45" y1="-77.5" x2="-52" y2="722" gradientUnits="userSpaceOnUse">
<stop stop-color="#8B5BC9"/>
<stop offset="1" stop-color="#EE09D7"/>
</linearGradient>
</defs>
</svg>
